<?xml version="1.0" encoding="UTF-8"?>
<!DOCTYPE svg PUBLIC "-//W3C//DTD SVG 1.1//EN" "http://www.w3.org/Graphics/SVG/1.1/DTD/svg11.dtd">
<svg xmlns="http://www.w3.org/2000/svg" version="1.1" width="67px" height="73px" style="shape-rendering:geometricPrecision; text-rendering:geometricPrecision; image-rendering:optimizeQuality; fill-rule:evenodd; clip-rule:evenodd" xmlns:xlink="http://www.w3.org/1999/xlink">
<g><path style="opacity:1" fill="#265f6e" d="M 30.5,12.5 C 31.791,12.2627 32.791,12.596 33.5,13.5C 31.8235,14.1834 31.1568,15.5168 31.5,17.5C 31.5,18.1667 31.1667,18.5 30.5,18.5C 30.5,16.5 30.5,14.5 30.5,12.5 Z"/></g>
<g><path style="opacity:0.443" fill="#7facbe" d="M 30.5,12.5 C 31.5676,11.5655 32.901,11.2322 34.5,11.5C 34.5,12.5 34.5,13.5 34.5,14.5C 34.1667,14.5 33.8333,14.5 33.5,14.5C 33.5,14.1667 33.5,13.8333 33.5,13.5C 32.791,12.596 31.791,12.2627 30.5,12.5 Z"/></g>
<g><path style="opacity:1" fill="#779eb4" d="M 42.5,18.5 C 42.1788,16.9519 41.1788,16.2852 39.5,16.5C 40.7751,14.1516 42.1084,14.3182 43.5,17C 43.4301,17.7648 43.0967,18.2648 42.5,18.5 Z"/></g>
<g><path style="opacity:1" fill="#5089a3" d="M 25.5,16.5 C 24.8333,16.8333 24.1667,17.1667 23.5,17.5C 23.1583,16.6618 22.4916,16.3284 21.5,16.5C 22.6344,14.2187 23.9678,14.2187 25.5,16.5 Z"/></g>
<g><path style="opacity:1" fill="#126484" d="M 33.5,13.5 C 33.5,13.8333 33.5,14.1667 33.5,14.5C 33.5,15.5 33.5,16.5 33.5,17.5C 32.8333,17.5 32.1667,17.5 31.5,17.5C 31.1568,15.5168 31.8235,14.1834 33.5,13.5 Z"/></g>
<g><path style="opacity:0.455" fill="#72aec3" d="M 33.5,14.5 C 33.8333,14.5 34.1667,14.5 34.5,14.5C 34.2053,16.7354 34.5386,18.7354 35.5,20.5C 35.1667,21.5 34.5,22.1667 33.5,22.5C 33.5,21.5 33.5,20.5 33.5,19.5C 33.5,18.8333 33.5,18.1667 33.5,17.5C 33.5,16.5 33.5,15.5 33.5,14.5 Z"/></g>
<g><path style="opacity:1" fill="#3d7990" d="M 21.5,16.5 C 22.4916,16.3284 23.1583,16.6618 23.5,17.5C 23.5,17.8333 23.5,18.1667 23.5,18.5C 23.5,18.8333 23.5,19.1667 23.5,19.5C 22.0937,19.0269 21.427,18.0269 21.5,16.5 Z"/></g>
<g><path style="opacity:1" fill="#398196" d="M 25.5,16.5 C 26.5,16.8333 27.1667,17.5 27.5,18.5C 26.1667,18.5 24.8333,18.5 23.5,18.5C 23.5,18.1667 23.5,17.8333 23.5,17.5C 24.1667,17.1667 24.8333,16.8333 25.5,16.5 Z"/></g>
<g><path style="opacity:0.996" fill="#12627c" d="M 39.5,17.5 C 39.5,17.1667 39.5,16.8333 39.5,16.5C 41.1788,16.2852 42.1788,16.9519 42.5,18.5C 41.391,18.4431 40.391,18.1098 39.5,17.5 Z"/></g>
<g><path style="opacity:1" fill="#398392" d="M 23.5,18.5 C 24.8333,18.5 26.1667,18.5 27.5,18.5C 28.1667,18.5 28.5,18.8333 28.5,19.5C 28.1667,19.5 27.8333,19.5 27.5,19.5C 26.209,19.2627 25.209,19.596 24.5,20.5C 23.8333,20.5 23.5,20.1667 23.5,19.5C 23.5,19.1667 23.5,18.8333 23.5,18.5 Z"/></g>
<g><path style="opacity:1" fill="#4f93a4" d="M 39.5,17.5 C 40.391,18.1098 41.391,18.4431 42.5,18.5C 41.8333,19.8333 40.8333,20.8333 39.5,21.5C 39.5,20.1667 39.5,18.8333 39.5,17.5 Z"/></g>
<g><path style="opacity:1" fill="#20708a" d="M 39.5,16.5 C 39.5,16.8333 39.5,17.1667 39.5,17.5C 39.5,18.8333 39.5,20.1667 39.5,21.5C 38.0937,21.0269 37.427,20.0269 37.5,18.5C 37.8333,17.5 38.5,16.8333 39.5,16.5 Z"/></g>
<g><path style="opacity:1" fill="#348093" d="M 27.5,19.5 C 26.8902,20.391 26.5569,21.391 26.5,22.5C 25.5,22.1667 24.8333,21.5 24.5,20.5C 25.209,19.596 26.209,19.2627 27.5,19.5 Z"/></g>
<g><path style="opacity:1" fill="#11688a" d="M 27.5,19.5 C 27.8333,19.5 28.1667,19.5 28.5,19.5C 28.5,20.8333 28.5,22.1667 28.5,23.5C 27.8333,23.1667 27.1667,22.8333 26.5,22.5C 26.5569,21.391 26.8902,20.391 27.5,19.5 Z"/></g>
<g><path style="opacity:1" fill="#0b6b80" d="M 31.5,17.5 C 32.1667,17.5 32.8333,17.5 33.5,17.5C 33.5,18.1667 33.5,18.8333 33.5,19.5C 32.1667,19.5 31.5,20.1667 31.5,21.5C 31.1667,21.5 30.8333,21.5 30.5,21.5C 30.5,21.1667 30.5,20.8333 30.5,20.5C 30.5,19.8333 30.5,19.1667 30.5,18.5C 31.1667,18.5 31.5,18.1667 31.5,17.5 Z"/></g>
<g><path style="opacity:1" fill="#086f92" d="M 33.5,19.5 C 33.5,20.5 33.5,21.5 33.5,22.5C 33.1667,22.5 32.8333,22.5 32.5,22.5C 31.8333,22.5 31.5,22.1667 31.5,21.5C 31.5,20.1667 32.1667,19.5 33.5,19.5 Z"/></g>
<g><path style="opacity:1" fill="#2b7995" d="M 37.5,18.5 C 37.427,20.0269 38.0937,21.0269 39.5,21.5C 39.5,22.1667 39.1667,22.5 38.5,22.5C 37.8333,22.8333 37.1667,23.1667 36.5,23.5C 35.209,23.7373 34.209,23.404 33.5,22.5C 34.5,22.1667 35.1667,21.5 35.5,20.5C 35.8333,19.5 36.5,18.8333 37.5,18.5 Z"/></g>
<g><path style="opacity:1" fill="#027387" d="M 30.5,21.5 C 30.8333,21.5 31.1667,21.5 31.5,21.5C 31.5,22.1667 31.8333,22.5 32.5,22.5C 32.5,23.1667 32.1667,23.5 31.5,23.5C 29.5759,23.2893 29.2426,22.6226 30.5,21.5 Z"/></g>
<g><path style="opacity:0.447" fill="#73bdd8" d="M 26.5,22.5 C 27.1667,22.8333 27.8333,23.1667 28.5,23.5C 28.5,23.8333 28.5,24.1667 28.5,24.5C 26.8333,24.5 25.1667,24.5 23.5,24.5C 21.8333,24.5 20.1667,24.5 18.5,24.5C 21.1667,23.8333 23.8333,23.1667 26.5,22.5 Z"/></g>
<g><path style="opacity:1" fill="#1d7e9c" d="M 28.5,19.5 C 29.1667,19.8333 29.8333,20.1667 30.5,20.5C 30.5,20.8333 30.5,21.1667 30.5,21.5C 29.2426,22.6226 29.5759,23.2893 31.5,23.5C 31.5,23.8333 31.5,24.1667 31.5,24.5C 30.8333,24.5 30.1667,24.5 29.5,24.5C 29.1667,24.5 28.8333,24.5 28.5,24.5C 28.5,24.1667 28.5,23.8333 28.5,23.5C 28.5,22.1667 28.5,20.8333 28.5,19.5 Z"/></g>
<g><path style="opacity:1" fill="#087990" d="M 32.5,22.5 C 32.8333,22.5 33.1667,22.5 33.5,22.5C 34.209,23.404 35.209,23.7373 36.5,23.5C 36.5,23.8333 36.5,24.1667 36.5,24.5C 35.5084,24.3284 34.8417,24.6618 34.5,25.5C 33.8333,25.5 33.1667,25.5 32.5,25.5C 31.8333,25.5 31.5,25.1667 31.5,24.5C 31.5,24.1667 31.5,23.8333 31.5,23.5C 32.1667,23.5 32.5,23.1667 32.5,22.5 Z"/></g>
<g><path style="opacity:0.459" fill="#76bacf" d="M 38.5,22.5 C 40.8333,23.1667 43.1667,23.8333 45.5,24.5C 44.8333,24.5 44.1667,24.5 43.5,24.5C 42.1667,24.5 40.8333,24.5 39.5,24.5C 38.5,24.5 37.5,24.5 36.5,24.5C 36.5,24.1667 36.5,23.8333 36.5,23.5C 37.1667,23.1667 37.8333,22.8333 38.5,22.5 Z"/></g>
<g><path style="opacity:1" fill="#0f788a" d="M 18.5,24.5 C 20.1667,24.5 21.8333,24.5 23.5,24.5C 24.5676,25.4345 25.901,25.7678 27.5,25.5C 27.5,26.1667 27.5,26.8333 27.5,27.5C 25.5,27.5 23.5,27.5 21.5,27.5C 20.9002,26.1001 19.9002,25.1001 18.5,24.5 Z"/></g>
<g><path style="opacity:1" fill="#067795" d="M 23.5,24.5 C 25.1667,24.5 26.8333,24.5 28.5,24.5C 28.8333,24.5 29.1667,24.5 29.5,24.5C 29.5,25.1667 29.5,25.8333 29.5,26.5C 28.8333,26.1667 28.1667,25.8333 27.5,25.5C 25.901,25.7678 24.5676,25.4345 23.5,24.5 Z"/></g>
<g><path style="opacity:1" fill="#02799e" d="M 29.5,24.5 C 30.1667,24.5 30.8333,24.5 31.5,24.5C 31.5,25.1667 31.8333,25.5 32.5,25.5C 32.5,26.1667 32.5,26.8333 32.5,27.5C 31.8333,27.5 31.1667,27.5 30.5,27.5C 29.8333,27.5 29.5,27.1667 29.5,26.5C 29.5,25.8333 29.5,25.1667 29.5,24.5 Z"/></g>
<g><path style="opacity:1" fill="#0a7392" d="M 34.5,25.5 C 34.8417,24.6618 35.5084,24.3284 36.5,24.5C 37.5,24.5 38.5,24.5 39.5,24.5C 38.8333,25.5 38.1667,26.5 37.5,27.5C 37.1667,27.5 36.8333,27.5 36.5,27.5C 36.5,26.1667 35.8333,25.5 34.5,25.5 Z"/></g>
<g><path style="opacity:1" fill="#13718a" d="M 39.5,24.5 C 40.8333,24.5 42.1667,24.5 43.5,24.5C 44.1667,25.5 44.8333,26.5 45.5,27.5C 42.8333,27.5 40.1667,27.5 37.5,27.5C 38.1667,26.5 38.8333,25.5 39.5,24.5 Z"/></g>
<g><path style="opacity:1" fill="#448394" d="M 43.5,24.5 C 44.1667,24.5 44.8333,24.5 45.5,24.5C 48.1667,25.5 48.1667,26.5 45.5,27.5C 44.8333,26.5 44.1667,25.5 43.5,24.5 Z"/></g>
<g><path style="opacity:1" fill="#318390" d="M 18.5,24.5 C 19.9002,25.1001 20.9002,26.1001 21.5,27.5C 20.8333,27.5 20.1667,27.5 19.5,27.5C 17.4482,26.9473 17.1148,25.9473 18.5,24.5 Z"/></g>
<g><path style="opacity:1" fill="#04729b" d="M 32.5,25.5 C 33.1667,25.5 33.8333,25.5 34.5,25.5C 35.8333,25.5 36.5,26.1667 36.5,27.5C 35.1667,27.5 33.8333,27.5 32.5,27.5C 32.5,26.8333 32.5,26.1667 32.5,25.5 Z"/></g>
<g><path style="opacity:0.118" fill="#abd6e6" d="M 36.5,28.5 C 36.5,28.1667 36.5,27.8333 36.5,27.5C 36.8333,27.5 37.1667,27.5 37.5,27.5C 40.1667,27.5 42.8333,27.5 45.5,27.5C 43.1667,28.1667 40.8333,28.8333 38.5,29.5C 37.8333,29.1667 37.1667,28.8333 36.5,28.5 Z"/></g>
<g><path style="opacity:1" fill="#0e7f96" d="M 27.5,25.5 C 28.1667,25.8333 28.8333,26.1667 29.5,26.5C 29.5,27.1667 29.8333,27.5 30.5,27.5C 31.5063,28.3957 31.5063,29.0623 30.5,29.5C 28.9731,29.573 27.9731,28.9063 27.5,27.5C 27.5,26.8333 27.5,26.1667 27.5,25.5 Z"/></g>
<g><path style="opacity:1" fill="#057c97" d="M 30.5,27.5 C 31.1667,27.5 31.8333,27.5 32.5,27.5C 33.8333,27.5 35.1667,27.5 36.5,27.5C 36.5,27.8333 36.5,28.1667 36.5,28.5C 35.8333,28.8333 35.1667,29.1667 34.5,29.5C 33.6618,29.8417 33.3284,30.5084 33.5,31.5C 32.5,31.5 31.5,31.5 30.5,31.5C 30.5,30.8333 30.5,30.1667 30.5,29.5C 31.5063,29.0623 31.5063,28.3957 30.5,27.5 Z"/></g>
<g><path style="opacity:1" fill="#69b5c2" d="M 19.5,27.5 C 20.1667,27.5 20.8333,27.5 21.5,27.5C 23.5,27.5 25.5,27.5 27.5,27.5C 27.9731,28.9063 28.9731,29.573 30.5,29.5C 30.5,30.1667 30.5,30.8333 30.5,31.5C 29.8333,31.8333 29.1667,32.1667 28.5,32.5C 28.5,32.1667 28.5,31.8333 28.5,31.5C 28.1667,30.5 27.5,29.8333 26.5,29.5C 24.1667,28.8333 21.8333,28.1667 19.5,27.5 Z"/></g>
<g><path style="opacity:0.998" fill="#278395" d="M 36.5,28.5 C 37.1667,28.8333 37.8333,29.1667 38.5,29.5C 39.1667,29.5 39.5,29.8333 39.5,30.5C 38.8333,30.5 38.1667,30.5 37.5,30.5C 36.8333,30.5 36.1667,30.5 35.5,30.5C 34.8333,30.5 34.5,30.1667 34.5,29.5C 35.1667,29.1667 35.8333,28.8333 36.5,28.5 Z"/></g>
<g><path style="opacity:1" fill="#1c8191" d="M 26.5,29.5 C 27.5,29.8333 28.1667,30.5 28.5,31.5C 26.901,31.7678 25.5676,31.4345 24.5,30.5C 25.1667,30.1667 25.8333,29.8333 26.5,29.5 Z"/></g>
<g><path style="opacity:1" fill="#5fa8b8" d="M 24.5,30.5 C 25.5676,31.4345 26.901,31.7678 28.5,31.5C 28.5,31.8333 28.5,32.1667 28.5,32.5C 27.8333,33.8333 26.8333,34.8333 25.5,35.5C 25.5,34.5 25.5,33.5 25.5,32.5C 24.5,32.5 23.5,32.5 22.5,32.5C 22.8333,31.5 23.5,30.8333 24.5,30.5 Z"/></g>
<g><path style="opacity:1" fill="#42899d" d="M 35.5,30.5 C 36.1667,30.5 36.8333,30.5 37.5,30.5C 37.5,31.5 37.5,32.5 37.5,33.5C 36.5,33.1667 35.8333,32.5 35.5,31.5C 35.5,31.1667 35.5,30.8333 35.5,30.5 Z"/></g>
<g><path style="opacity:1" fill="#147e84" d="M 30.5,31.5 C 31.5,31.5 32.5,31.5 33.5,31.5C 33.5,32.1667 33.5,32.8333 33.5,33.5C 32.5,33.5 31.5,33.5 30.5,33.5C 30.5,32.8333 30.5,32.1667 30.5,31.5 Z"/></g>
<g><path style="opacity:1" fill="#3c8ea4" d="M 37.5,30.5 C 38.1667,30.5 38.8333,30.5 39.5,30.5C 40.8333,31.1667 41.8333,32.1667 42.5,33.5C 40.901,33.2322 39.5676,33.5655 38.5,34.5C 37.8333,34.5 37.5,34.1667 37.5,33.5C 37.5,32.5 37.5,31.5 37.5,30.5 Z"/></g>
<g><path style="opacity:0.445" fill="#80becd" d="M 34.5,29.5 C 34.5,30.1667 34.8333,30.5 35.5,30.5C 35.5,30.8333 35.5,31.1667 35.5,31.5C 34.8333,34.1667 34.1667,36.8333 33.5,39.5C 33.5,38.8333 33.5,38.1667 33.5,37.5C 33.5,36.1667 33.5,34.8333 33.5,33.5C 33.5,32.8333 33.5,32.1667 33.5,31.5C 33.3284,30.5084 33.6618,29.8417 34.5,29.5 Z"/></g>
<g><path style="opacity:1" fill="#127b87" d="M 38.5,34.5 C 39.5676,33.5655 40.901,33.2322 42.5,33.5C 42.631,34.2389 42.4643,34.9056 42,35.5C 40.9887,34.6634 39.8221,34.33 38.5,34.5 Z"/></g>
<g><path style="opacity:1" fill="#42959c" d="M 22.5,32.5 C 23.5,32.5 24.5,32.5 25.5,32.5C 25.5,33.5 25.5,34.5 25.5,35.5C 24.4324,36.4345 23.099,36.7678 21.5,36.5C 21.2322,34.901 21.5655,33.5676 22.5,32.5 Z"/></g>
<g><path style="opacity:1" fill="#68a9af" d="M 42.5,33.5 C 43.404,34.209 43.7373,35.209 43.5,36.5C 41.302,36.8799 39.6354,36.2132 38.5,34.5C 39.8221,34.33 40.9887,34.6634 42,35.5C 42.4643,34.9056 42.631,34.2389 42.5,33.5 Z"/></g>
<g><path style="opacity:1" fill="#69a6ae" d="M 8.5,35.5 C 7.16667,35.5 6.5,36.1667 6.5,37.5C 4.10819,36.2579 4.27485,34.9245 7,33.5C 7.71719,34.0442 8.21719,34.7109 8.5,35.5 Z"/></g>
<g><path style="opacity:1" fill="#23788d" d="M 30.5,33.5 C 31.5,33.5 32.5,33.5 33.5,33.5C 33.5,34.8333 33.5,36.1667 33.5,37.5C 32.5,37.5 31.5,37.5 30.5,37.5C 30.5,36.1667 30.5,34.8333 30.5,33.5 Z"/></g>
<g><path style="opacity:0.898" fill="#7daec7" d="M 56.5,34.5 C 56.5,35.1667 56.5,35.8333 56.5,36.5C 55.609,37.1098 54.609,37.4431 53.5,37.5C 54.1667,36.1667 55.1667,35.1667 56.5,34.5 Z"/></g>
<g><path style="opacity:1" fill="#5e99a5" d="M 56.5,34.5 C 57.5,34.5 58.5,34.5 59.5,34.5C 59.7709,36.3797 59.1042,37.713 57.5,38.5C 57.6716,37.5084 57.3382,36.8417 56.5,36.5C 56.5,35.8333 56.5,35.1667 56.5,34.5 Z"/></g>
<g><path style="opacity:1" fill="#3d9ba0" d="M 8.5,35.5 C 9.16667,35.5 9.5,35.8333 9.5,36.5C 8.5,36.8333 7.83333,37.5 7.5,38.5C 6.83333,38.5 6.5,38.1667 6.5,37.5C 6.5,36.1667 7.16667,35.5 8.5,35.5 Z"/></g>
<g><path style="opacity:1" fill="#429da7" d="M 9.5,36.5 C 10.1667,36.5 10.5,36.8333 10.5,37.5C 9.5,37.8333 8.83333,38.5 8.5,39.5C 7.83333,39.5 7.5,39.1667 7.5,38.5C 7.83333,37.5 8.5,36.8333 9.5,36.5 Z"/></g>
<g><path style="opacity:1" fill="#428d9f" d="M 56.5,36.5 C 57.3382,36.8417 57.6716,37.5084 57.5,38.5C 57.1667,39.5 56.5,40.1667 55.5,40.5C 55.1583,39.6618 54.4916,39.3284 53.5,39.5C 53.5,38.8333 53.5,38.1667 53.5,37.5C 54.609,37.4431 55.609,37.1098 56.5,36.5 Z"/></g>
<g><path style="opacity:1" fill="#439da9" d="M 10.5,37.5 C 11.1667,37.5 11.5,37.8333 11.5,38.5C 10.5,38.8333 9.83333,39.5 9.5,40.5C 8.83333,40.5 8.5,40.1667 8.5,39.5C 8.83333,38.5 9.5,37.8333 10.5,37.5 Z"/></g>
<g><path style="opacity:1" fill="#4492a2" d="M 30.5,37.5 C 31.5,37.5 32.5,37.5 33.5,37.5C 33.5,38.1667 33.5,38.8333 33.5,39.5C 32.791,40.404 31.791,40.7373 30.5,40.5C 30.5,39.5 30.5,38.5 30.5,37.5 Z"/></g>
<g><path style="opacity:0.929" fill="#77b7cd" d="M 53.5,37.5 C 53.5,38.1667 53.5,38.8333 53.5,39.5C 52.609,40.1098 51.609,40.4431 50.5,40.5C 51.1667,39.1667 52.1667,38.1667 53.5,37.5 Z"/></g>
<g><path style="opacity:1" fill="#3a97a5" d="M 11.5,38.5 C 12.5,38.8333 13.1667,39.5 13.5,40.5C 12.791,41.404 11.791,41.7373 10.5,41.5C 9.83333,41.5 9.5,41.1667 9.5,40.5C 9.83333,39.5 10.5,38.8333 11.5,38.5 Z"/></g>
<g><path style="opacity:1" fill="#5aa7b4" d="M 53.5,39.5 C 54.4916,39.3284 55.1583,39.6618 55.5,40.5C 54.8333,41.8333 53.8333,42.8333 52.5,43.5C 52.6309,42.6236 52.2975,41.9569 51.5,41.5C 50.5832,42.1272 49.5832,42.4606 48.5,42.5C 48.8333,41.5 49.5,40.8333 50.5,40.5C 51.609,40.4431 52.609,40.1098 53.5,39.5 Z"/></g>
<g><path style="opacity:1" fill="#47a8aa" d="M 13.5,40.5 C 14.5,40.8333 15.1667,41.5 15.5,42.5C 14.209,42.2627 13.209,42.596 12.5,43.5C 11.5,43.1667 10.8333,42.5 10.5,41.5C 11.791,41.7373 12.791,41.404 13.5,40.5 Z"/></g>
<g><path style="opacity:0.875" fill="#64adaf" d="M 22.5,41.5 C 21.0937,41.9731 20.427,42.9731 20.5,44.5C 17.8744,42.7361 18.0411,41.4028 21,40.5C 21.7648,40.5699 22.2648,40.9033 22.5,41.5 Z"/></g>
<g><path style="opacity:1" fill="#4398ac" d="M 22.5,41.5 C 23.5,41.8333 24.1667,42.5 24.5,43.5C 23.0413,43.4326 21.7079,43.7659 20.5,44.5C 20.427,42.9731 21.0937,41.9731 22.5,41.5 Z"/></g>
<g><path style="opacity:1" fill="#49a1a8" d="M 52.5,43.5 C 51.8333,44.8333 50.8333,45.8333 49.5,46.5C 49.1667,45.1667 48.8333,43.8333 48.5,42.5C 49.5832,42.4606 50.5832,42.1272 51.5,41.5C 52.2975,41.9569 52.6309,42.6236 52.5,43.5 Z"/></g>
<g><path style="opacity:1" fill="#43a5a6" d="M 15.5,42.5 C 16.5,42.8333 17.1667,43.5 17.5,44.5C 16.5041,44.5858 15.6708,44.2524 15,43.5C 14.5357,44.0944 14.369,44.7611 14.5,45.5C 13.5,45.1667 12.8333,44.5 12.5,43.5C 13.209,42.596 14.209,42.2627 15.5,42.5 Z"/></g>
<g><path style="opacity:1" fill="#5aafb9" d="M 24.5,43.5 C 25.1667,43.5 25.5,43.8333 25.5,44.5C 24.209,44.2627 23.209,44.596 22.5,45.5C 22.5,45.8333 22.5,46.1667 22.5,46.5C 21.5,46.1667 20.8333,45.5 20.5,44.5C 21.7079,43.7659 23.0413,43.4326 24.5,43.5 Z"/></g>
<g><path style="opacity:1" fill="#4c9aab" d="M 42.5,45.5 C 42.5,44.1667 41.8333,43.5 40.5,43.5C 41.4006,41.2729 43.0672,40.2729 45.5,40.5C 45.7271,42.9328 44.7271,44.5994 42.5,45.5 Z"/></g>
<g><path style="opacity:1" fill="#3ca3a7" d="M 17.5,44.5 C 18.1667,44.5 18.5,44.8333 18.5,45.5C 17.5,45.8333 16.8333,46.5 16.5,47.5C 15.5,47.1667 14.8333,46.5 14.5,45.5C 14.369,44.7611 14.5357,44.0944 15,43.5C 15.6708,44.2524 16.5041,44.5858 17.5,44.5 Z"/></g>
<g><path style="opacity:1" fill="#379b9f" d="M 40.5,43.5 C 41.8333,43.5 42.5,44.1667 42.5,45.5C 41.8333,46.8333 40.8333,47.8333 39.5,48.5C 39.5,47.1667 39.5,45.8333 39.5,44.5C 39.5,43.8333 39.8333,43.5 40.5,43.5 Z"/></g>
<g><path style="opacity:1" fill="#66afb8" d="M 48.5,42.5 C 48.8333,43.8333 49.1667,45.1667 49.5,46.5C 49.1667,47.5 48.5,48.1667 47.5,48.5C 47.6495,47.448 47.4828,46.448 47,45.5C 46.3292,46.2524 45.4959,46.5858 44.5,46.5C 45.5,44.8333 46.8333,43.5 48.5,42.5 Z"/></g>
<g><path style="opacity:1" fill="#4db0b1" d="M 22.5,45.5 C 23.552,45.3505 24.552,45.5172 25.5,46C 24.7476,46.6708 24.4142,47.5041 24.5,48.5C 23.5,48.1667 22.8333,47.5 22.5,46.5C 22.5,46.1667 22.5,45.8333 22.5,45.5 Z"/></g>
<g><path style="opacity:1" fill="#379dac" d="M 18.5,45.5 C 19.1667,45.5 19.5,45.8333 19.5,46.5C 19.5,47.8333 18.8333,48.5 17.5,48.5C 16.8333,48.5 16.5,48.1667 16.5,47.5C 16.8333,46.5 17.5,45.8333 18.5,45.5 Z"/></g>
<g><path style="opacity:1" fill="#3b9da7" d="M 22.5,45.5 C 23.209,44.596 24.209,44.2627 25.5,44.5C 26.8333,45.1667 27.8333,46.1667 28.5,47.5C 28.5,48.1667 28.5,48.8333 28.5,49.5C 27.5,49.5 26.5,49.5 25.5,49.5C 24.8333,49.5 24.5,49.1667 24.5,48.5C 24.4142,47.5041 24.7476,46.6708 25.5,46C 24.552,45.5172 23.552,45.3505 22.5,45.5 Z"/></g>
<g><path style="opacity:1" fill="#469faf" d="M 37.5,46.5 C 37.4431,47.609 37.1098,48.609 36.5,49.5C 35.8333,49.5 35.5,49.8333 35.5,50.5C 34.8333,50.5 34.1667,50.5 33.5,50.5C 34.5,48.8333 35.8333,47.5 37.5,46.5 Z"/></g>
<g><path style="opacity:1" fill="#4ba8b0" d="M 19.5,46.5 C 20.5,46.8333 21.1667,47.5 21.5,48.5C 20.5,48.8333 19.8333,49.5 19.5,50.5C 18.5,50.1667 17.8333,49.5 17.5,48.5C 18.8333,48.5 19.5,47.8333 19.5,46.5 Z"/></g>
<g><path style="opacity:1" fill="#3c99a5" d="M 39.5,44.5 C 39.5,45.8333 39.5,47.1667 39.5,48.5C 39.1667,49.5 38.5,50.1667 37.5,50.5C 37.5,49.8333 37.1667,49.5 36.5,49.5C 37.1098,48.609 37.4431,47.609 37.5,46.5C 37.8333,45.5 38.5,44.8333 39.5,44.5 Z"/></g>
<g><path style="opacity:1" fill="#4c9fa8" d="M 47.5,48.5 C 46.7777,49.5511 45.7777,50.2178 44.5,50.5C 44.1583,49.6618 43.4916,49.3284 42.5,49.5C 42.5,49.1667 42.5,48.8333 42.5,48.5C 42.8333,47.5 43.5,46.8333 44.5,46.5C 45.4959,46.5858 46.3292,46.2524 47,45.5C 47.4828,46.448 47.6495,47.448 47.5,48.5 Z"/></g>
<g><path style="opacity:1" fill="#46a8ac" d="M 21.5,48.5 C 22.1667,48.5 22.5,48.8333 22.5,49.5C 21.5,49.8333 20.8333,50.5 20.5,51.5C 19.8333,51.5 19.5,51.1667 19.5,50.5C 19.8333,49.5 20.5,48.8333 21.5,48.5 Z"/></g>
<g><path style="opacity:1" fill="#5cb9b5" d="M 25.5,49.5 C 26.5,49.5 27.5,49.5 28.5,49.5C 28.5,50.5 28.5,51.5 28.5,52.5C 27.1667,51.8333 26.1667,50.8333 25.5,49.5 Z"/></g>
<g><path style="opacity:1" fill="#37a1b1" d="M 22.5,49.5 C 23.5,49.8333 24.1667,50.5 24.5,51.5C 24.5,52.8333 23.8333,53.5 22.5,53.5C 21.5,53.1667 20.8333,52.5 20.5,51.5C 20.8333,50.5 21.5,49.8333 22.5,49.5 Z"/></g>
<g><path style="opacity:1" fill="#55aeb7" d="M 28.5,47.5 C 29.922,48.925 31.5887,49.925 33.5,50.5C 32.1667,51.1667 30.8333,51.8333 29.5,52.5C 29.5,52.8333 29.5,53.1667 29.5,53.5C 28.8333,53.5 28.5,53.1667 28.5,52.5C 28.5,51.5 28.5,50.5 28.5,49.5C 28.5,48.8333 28.5,48.1667 28.5,47.5 Z"/></g>
<g><path style="opacity:1" fill="#3fa3a8" d="M 36.5,49.5 C 37.1667,49.5 37.5,49.8333 37.5,50.5C 37.1667,51.5 36.5,52.1667 35.5,52.5C 35.5,51.8333 35.5,51.1667 35.5,50.5C 35.5,49.8333 35.8333,49.5 36.5,49.5 Z"/></g>
<g><path style="opacity:1" fill="#54a4b1" d="M 42.5,49.5 C 43.4916,49.3284 44.1583,49.6618 44.5,50.5C 44.573,52.0269 43.9063,53.0269 42.5,53.5C 41.1667,52.1667 41.1667,50.8333 42.5,49.5 Z"/></g>
<g><path style="opacity:1" fill="#1c92a0" d="M 33.5,50.5 C 34.1667,50.5 34.8333,50.5 35.5,50.5C 35.5,51.1667 35.5,51.8333 35.5,52.5C 35.1667,52.5 34.8333,52.5 34.5,52.5C 32.8333,52.5 31.1667,52.5 29.5,52.5C 30.8333,51.8333 32.1667,51.1667 33.5,50.5 Z"/></g>
<g><path style="opacity:1" fill="#63b7bf" d="M 42.5,48.5 C 42.5,48.8333 42.5,49.1667 42.5,49.5C 41.1667,50.8333 41.1667,52.1667 42.5,53.5C 41.8333,54.8333 40.8333,55.8333 39.5,56.5C 39.7678,54.901 39.4345,53.5676 38.5,52.5C 39.5,50.8333 40.8333,49.5 42.5,48.5 Z"/></g>
<g><path style="opacity:1" fill="#109aa8" d="M 29.5,53.5 C 29.5,53.1667 29.5,52.8333 29.5,52.5C 31.1667,52.5 32.8333,52.5 34.5,52.5C 34.5,52.8333 34.5,53.1667 34.5,53.5C 33.391,53.5569 32.391,53.8902 31.5,54.5C 31.1583,53.6618 30.4916,53.3284 29.5,53.5 Z"/></g>
<g><path style="opacity:1" fill="#48aeb9" d="M 24.5,51.5 C 25.5,51.8333 26.1667,52.5 26.5,53.5C 25.5,53.8333 24.8333,54.5 24.5,55.5C 23.5,55.1667 22.8333,54.5 22.5,53.5C 23.8333,53.5 24.5,52.8333 24.5,51.5 Z"/></g>
<g><path style="opacity:1" fill="#37a5a8" d="M 26.5,53.5 C 27.1667,53.5 27.5,53.8333 27.5,54.5C 26.8333,55.1667 26.1667,55.8333 25.5,56.5C 24.8333,56.5 24.5,56.1667 24.5,55.5C 24.8333,54.5 25.5,53.8333 26.5,53.5 Z"/></g>
<g><path style="opacity:1" fill="#38afae" d="M 29.5,53.5 C 30.4916,53.3284 31.1583,53.6618 31.5,54.5C 30.8333,54.5 30.5,54.8333 30.5,55.5C 28.847,55.6596 27.5137,56.3263 26.5,57.5C 25.8333,57.5 25.5,57.1667 25.5,56.5C 26.1667,55.8333 26.8333,55.1667 27.5,54.5C 28.4916,54.6716 29.1583,54.3382 29.5,53.5 Z"/></g>
<g><path style="opacity:1" fill="#3aaaab" d="M 34.5,53.5 C 35.494,55.3344 35.494,57.0011 34.5,58.5C 33.2954,56.8624 31.9621,56.5291 30.5,57.5C 30.5,56.8333 30.5,56.1667 30.5,55.5C 30.5,54.8333 30.8333,54.5 31.5,54.5C 32.391,53.8902 33.391,53.5569 34.5,53.5 Z"/></g>
<g><path style="opacity:1" fill="#52b3b8" d="M 38.5,52.5 C 39.4345,53.5676 39.7678,54.901 39.5,56.5C 39.5,57.1667 39.1667,57.5 38.5,57.5C 38.7148,55.8212 38.0481,54.8212 36.5,54.5C 36.8333,53.5 37.5,52.8333 38.5,52.5 Z"/></g>
<g><path style="opacity:1" fill="#2698a2" d="M 36.5,54.5 C 38.0481,54.8212 38.7148,55.8212 38.5,57.5C 36.9519,57.1788 36.2852,56.1788 36.5,54.5 Z"/></g>
<g><path style="opacity:1" fill="#45abad" d="M 30.5,55.5 C 30.5,56.1667 30.5,56.8333 30.5,57.5C 29.1667,60.1667 27.8333,60.1667 26.5,57.5C 27.5137,56.3263 28.847,55.6596 30.5,55.5 Z"/></g>
<g><path style="opacity:1" fill="#68bfc7" d="M 34.5,52.5 C 34.8333,52.5 35.1667,52.5 35.5,52.5C 35.3284,53.4916 35.6618,54.1583 36.5,54.5C 36.2852,56.1788 36.9519,57.1788 38.5,57.5C 37.332,60.4689 35.9987,60.8022 34.5,58.5C 35.494,57.0011 35.494,55.3344 34.5,53.5C 34.5,53.1667 34.5,52.8333 34.5,52.5 Z"/></g>
</svg>
